PathFileType	4	(X/Y/Z)	1_coords_data.trc
DataRate	CameraRate	NumFrames	NumMarkers	Units	OrigDataRate	OrigDataStartFrame	OrigNumFrames
30.0	30.0	8	21	m	30.0	1	61
Frame#	Time	THUMB_TIP	THUMB_IP	THUMB_MCP	THUMB_CMC	INDEX_TIP	INDEX_DIP	INDEX_PIP	INDEX_MCP	MIDDLE_TIP	MIDDLE_DIP	MIDDLE_PIP	MIDDLE_MCP	RING_TIP	RING_DIP	RING_PIP	RING_MCP	PINKY_TIP	PINKY_DIP	PINKY_PIP	PINKY_MCP	WRIST
X1	Y1	Z1	X2	Y2	Z2	X3	Y3	Z3	X4	Y4	Z4	X5	Y5	Z5	X6	Y6	Z6	X7	Y7	Z7	X8	Y8	Z8	X9	Y9	Z9	X10	Y10	Z10	X11	Y11	Z11	X12	Y12	Z12	X13	Y13	Z13	X14	Y14	Z14	X15	Y15	Z15	X16	Y16	Z16	X17	Y17	Z17	X18	Y18	Z18	X19	Y19	Z19	X20	Y20	Z20	X21	Y21	Z21
0	-2.749317978547796e-18	0.4634182951828026	-0.02379765573075099	-0.1678460599453397	0.4753595549066666	-0.02516459153776862	-0.1482619387573283	0.47576711578578745	-0.033983838875706995	-0.11841441339052305	0.4789126039221526	-0.030605642717987935	-0.07404568910072673	0.5085725092524489	-0.016606807154818992	-0.10435838996947844	0.5264044338215903	-0.013786424340149539	-0.1057964118535849	0.537365569194626	0.005238587469177158	-0.11804027848096088	0.4955421068851241	0.012639979556502867	-0.12114728501705863	0.5058621281495078	-0.018455426999294144	-0.08507688956431425	0.5230652991978739	-0.012999321223370441	-0.08356632157756483	0.5398164149499891	0.008939139485550585	-0.09292119265002596	0.5008474625489895	0.029038496390125457	-0.10149933474439277	0.5031564032387786	-0.006983354236306694	-0.07157856022846465	0.5204966274340058	-0.0036236375885368988	-0.06796899946488699	0.5368044578499731	0.01483650969574668	-0.07163746077265842	0.5051222601122185	0.038332621698646374	-0.08051957207870586	0.5020140500296378	-0.007254982677802113	-0.05354283772563728	0.5186038411943555	-0.004969186422306149	-0.04999968029342883	0.5309619050063317	0.011972604654974406	-0.051032149621256684	0.5054526519945222	0.03669773575590618	-0.05726347001273324	0.4622830810018609	-0.023011742144276925	-0.051989820119430985
1	0.03333333333333339	0.4639573621224062	-0.023912223974236535	-0.16813172112015295	0.47544436601929413	-0.025380647071882256	-0.1482849965773177	0.4756217133019561	-0.03417587937387434	-0.1184281307556122	0.47885065912266805	-0.03065027162131906	-0.07407687374003225	0.5086140941674815	-0.016638356293654066	-0.10430913660769825	0.5264193327168167	-0.01370662070758133	-0.10585134497709014	0.5373488345801907	0.005324499512146641	-0.11811398275208651	0.49550390148946744	0.012623300813128346	-0.12117423898346508	0.505915433668736	-0.018439686544308387	-0.08508352467320601	0.5231178764881685	-0.012970618902106046	-0.08361204236982256	0.5398055017552098	0.008988561280841134	-0.09303154971573324	0.5007935980420737	0.029029692344577196	-0.10155049069235411	0.5031832141276159	-0.006988166920270045	-0.0715593953628253	0.5205308792251317	-0.003542797851164514	-0.0680682712398406	0.53680430523733	0.01493483635458659	-0.07180091359934515	0.5050404691715901	0.03835019610735535	-0.08060434929441429	0.502115984263896	-0.0072802767988672246	-0.053692430030385485	0.5186941556336955	-0.004937431089886091	-0.05013219014837367	0.5310188509545394	0.012027649963580522	-0.05118096519464488	0.505442232969197	0.03669689859058933	-0.0573573909904177	0.46228308100186083	-0.023011742144276925	-0.051989820119430985
2	0.06666666666666676	0.4645649801893667	-0.02395534572518032	-0.16842091174079665	0.47553756437829303	-0.025551884213750875	-0.1482949717361301	0.4754771330774577	-0.03434889783026396	-0.11843816515054961	0.47879061824470953	-0.03070541985043318	-0.07410267277416016	0.5086588973849746	-0.016675149353079566	-0.10428577157364505	0.5264426113487242	-0.013660618430495264	-0.10591430495442633	0.537338090094032	0.005375230632320038	-0.11819985851819625	0.49547447685265	0.012588871603551377	-0.12120607945388329	0.5059768952881583	-0.018434528168967734	-0.08510426289308892	0.523180064506026	-0.01295709798466782	-0.08367292525384229	0.5398121157204901	0.009018323054564292	-0.09315265586963073	0.5007577008606134	0.029005164612012635	-0.1016040915766635	0.5032153697914528	-0.007018824709955962	-0.07155200482743806	0.5205678502817949	-0.0034930732098150674	-0.06816666921755343	0.5368136223343889	0.014997130475661202	-0.07195708305838344	0.5049838863154424	0.03834823164923018	-0.08069291804686252	0.5022069470650021	-0.007312379401097191	-0.05382077069038105	0.5187771088469881	-0.004923090763860216	-0.05025411422713999	0.5310751918603723	0.012059965119467386	-0.05132415444119087	0.505445509518453	0.036685792708188725	-0.05745370985923581	0.4622830810018609	-0.023011742144276925	-0.051989820119430985
3	0.10000000000000014	0.4652267906663484	-0.023940314655052086	-0.16870416953257422	0.47563697521832665	-0.025684803432099	-0.14829376001927652	0.4753349926776525	-0.03450417717613985	-0.11844501710926347	0.4787329857114344	-0.03076841665473451	-0.07412360313510113	0.5087053487631374	-0.01671594053567116	-0.10428475026051265	0.5264724546411614	-0.013643008014055047	-0.10598387781213536	0.5373313422438409	0.005396669141670807	-0.1182958673685841	0.49545148039435644	0.012540456118452115	-0.1212419788903134	0.5060440902041183	-0.01843783893778761	-0.0851372703134059	0.5232491417899677	-0.012955818553338272	-0.08374671199649009	0.5398325629005851	0.009032147968321635	-0.09328238305364656	0.5007361851472585	0.028968164803273577	-0.10165951862170897	0.5032510579348703	-0.007069711182767224	-0.07155562131926807	0.5206062719766216	-0.003469372030830975	-0.06826410137309724	0.5368304418067373	0.015029160937738206	-0.07210605014088645	0.5049483088465334	0.03833034344063202	-0.08078391427180664	0.5022869088883931	-0.0073493000175002265	-0.053930550351671824	0.5188522912248706	-0.004923231716035703	-0.05036652164205879	0.5311297931166696	0.012073111964156502	-0.051461632504786636	0.5054595761598207	0.0366666127171823	-0.05755122469960805	0.4622830810018609	-0.023011742144276925	-0.051989820119430985
4	0.13333333333333353	0.46592715619453107	-0.023880186019480054	-0.16897308799352262	0.47574042029749386	-0.02578569474449699	-0.14828326237452844	0.47519694060591755	-0.034642907414404234	-0.11844914744639823	0.4786782751522075	-0.03083654507104694	-0.0741402102498474	0.50875211642364	-0.01675945140972057	-0.10430253343124973	0.5265070389933691	-0.013648374841809141	-0.10605864479773974	0.537326592807768	0.005394699671412595	-0.1183999737918644	0.4954325800221226	0.01248178905610331	-0.12128111085378884	0.5061146242024054	-0.018447521902697828	-0.0851806952496238	0.5233224110356303	-0.012963839074092487	-0.0838311416428521	0.5398631840874042	0.009033736068577936	-0.09341858471659581	0.5007254931421447	0.028921912710378694	-0.10171614449871802	0.5032884255352633	-0.0071351381746400655	-0.07156955441391855	0.5206447927486484	-0.003466566509148894	-0.06836048927134364	0.5368527017809808	0.015036719618856997	-0.07224791338826075	0.5049294978687977	0.03830013248185793	-0.08087597852169315	0.5023559323939422	-0.007389068958972289	-0.054024537488799984	0.518919321774179	-0.004934874782522747	-0.050470516782200714	0.531181520512862	0.012070705531949666	-0.05159334324299725	0.5054815347109411	0.03664154996157476	-0.057648736276998847	0.4622830810018609	-0.023011742144276925	-0.051989820119430985
5	0.1666666666666669	0.4666490090085744	-0.023787839134629896	-0.16922074154448907	0.47584570574087387	-0.025860694172377574	-0.14826545483190512	0.4750646593472647	-0.034766214458944456	-0.1184510007038051	0.4786270115721191	-0.03090705275698591	-0.07415307165983953	0.5087980380123037	-0.01680436841792954	-0.10433559856776708	0.5265445334883083	-0.013671293644628046	-0.10613719252453169	0.5373218417024751	0.005375212536753549	-0.11851014944434068	0.49541545923917696	0.012416592342358035	-0.12132265247065205	0.5061861249044628	-0.018461479205582387	-0.08523267166125781	0.5233971971288284	-0.01297820838741548	-0.08392395701615307	0.5399003514040336	0.009026777197932434	-0.09355910404966572	0.5007220895675529	0.028869611808388873	-0.10177333773846708	0.5033256045733769	-0.007209355085984748	-0.07159318795151548	0.5206820105608618	-0.00347950168311828	-0.06845577424103322	0.536878282076525	0.01502561348992737	-0.07238279352074639	0.5049232009464841	0.03826118749352503	-0.0809677643824237	0.5024141465780261	-0.007429728096982169	-0.05410554631902964	0.5189778428303394	-0.00495500359571821	-0.05056722678796077	0.5312292441522724	0.012056404934371767	-0.05171925303389435	0.5055084972100553	0.03661279757279867	-0.057745048277831	0.4622830810018609	-0.023011742144276925	-0.051989820119430985
6	0.20000000000000023	0.4673739239555751	-0.02367597448019576	-0.16944204597756118	0.47595061390799737	-0.02591583150048704	-0.14824243678331733	0.4749398659316479	-0.03487518538563095	-0.1184510224750126	0.478579731908133	-0.030977162311689677	-0.0741627983992128	0.5088420642904536	-0.016849345539102112	-0.10438044539912228	0.5265831006019908	-0.013706324497867461	-0.10621812037775058	0.5373150895773725	0.005344110524233114	-0.11862437569920081	0.4953978131569	0.01234858789058868	-0.1213657856127155	0.5062562363209291	-0.01847759932235782	-0.08529132192235767	0.5234708453289414	-0.012995960252998429	-0.0840229096019599	0.5399404649174122	0.009014960690309493	-0.09370178039552424	0.500722456574151	0.028814461122855572	-0.10183046572646837	0.5033607324631681	-0.007286556757216456	-0.0716259762806516	0.5207164982903701	-0.003503002719915105	-0.06854992176258001	0.5369050326328972	0.015001658582370014	-0.07251083642065237	0.5049251689752325	0.03821708664809875	-0.08105794436206448	0.5024617241052562	-0.007469323403619943	-0.054176411011268355	0.5190275151876125	-0.004980572285370299	-0.050657791440025135	0.5312718412649813	0.012033904723770972	-0.051839345508390866	0.5055375876379131	0.03658255393872889	-0.05783896741136729	0.46228308100186094	-0.023011742144276925	-0.051989820119430985
7	0.23333333333333361	0.4680823671102792	-0.023557072982133942	-0.16963398944104874	0.47605289793577554	-0.02595706988685309	-0.1482164579955914	0.4748243099771997	-0.0349708896024753	-0.11844967070232937	0.4785369839550336	-0.031044080862279944	-0.074170034016238	0.5088832145895434	-0.01689300947713057	-0.10443359743498548	0.526620896316476	-0.013748010360789986	-0.10630004526770376	0.5373043400393918	0.00530731313824806	-0.11874064451236621	0.4953773453839716	0.012281506497559547	-0.12140969680696528	0.5063226146936177	-0.01849374847408003	-0.08535475889415667	0.5235407195551381	-0.013014110383466782	-0.08412576281052486	0.5399799492552944	0.009001981951320182	-0.09384445383203832	0.5007230892464589	0.02875966355193138	-0.10188689631026449	0.5033919668513219	-0.0073608902222049855	-0.07166743913398299	0.5207468219051851	-0.003531880706780788	-0.06864292393478233	0.5369307940061984	0.014970675557454127	-0.0726322143130882	0.5049311673033876	0.03817139912756784	-0.08114521323849266	0.5024988623009452	-0.007505899307875041	-0.054239966209154056	0.519068013533251	-0.0050085125626888605	-0.05074335543785802	0.5313081977296132	0.012006926791087946	-0.051953617160407584	0.5055659424409134	0.03655302461044552	-0.05792930335480673	0.4622830810018609	-0.023011742144276925	-0.051989820119430985
